<?xml version="1.0" encoding="UTF-8"?>
<!-- Generator: Adobe Illustrator 16.0.3, SVG Export Plug-In . SVG Version: 6.00 Build 0)  -->
<!DOCTYPE svg PUBLIC "-//W3C//DTD SVG 1.1//EN" "http://www.w3.org/Graphics/SVG/1.1/DTD/svg11.dtd">
<svg version="1.1" id="Layer_1" xmlns="http://www.w3.org/2000/svg" xmlns:xlink="http://www.w3.org/1999/xlink" x="0px" y="0px" width="780px" height="165px" viewBox="0 0 780 165" enable-background="new 0 0 780 165" xml:space="preserve">
<g>
	<path fill="#1D1D1B" d="M662.371,94.947l-0.35,0.81L651.9,95.482l-0.676-0.842l-0.667,0.012v6.185   c-0.148,2.821,2.739,6.244,6.606,6.224c3.626-0.193,5.381-3.604,5.627-6.778l0.389-5.349L662.371,94.947z M661.122,101.104   c-0.269,1.345-1.938,3.156-3.907,3.356c-2.763,0.067-5.072-2.192-5.21-4.091c-0.104-1.799,0.02-2.26,0.02-2.26l9.292,0.308   C661.296,99.439,661.384,99.954,661.122,101.104"/>
	<polygon fill="#1D1D1B" points="654.804,124.174 656.778,128.105 657.208,127.857 656.986,126.821 666.255,122.743    666.732,123.318 667.531,122.938 665.808,119.407 665.254,119.655 665.267,120.738 656.167,124.702 655.368,124.101  "/>
	<path fill="#1D1D1B" d="M657.819,120.043v0.441l-2.649,0.541c-1.504-1.022-2.212-2.092-2.652-3.863   c-0.866-3.431,0-6.619,4.509-7.875c4.744-1.472,6.704,1.591,7.729,5.167c0.292,1.057,0.312,1.812,0.486,2.962l-2.508,0.694   l-0.342-0.508c0.987-0.889,1.296-2.206,0.974-3.477c-0.494-1.945-2.732-3.048-4.565-2.313l1.321,5.729l1.021,0.421l0.184,0.548   l-2.679,0.688l-0.174-0.555l0.386-0.602l-1.457-5.755c-2.232,0.127-3.888,2.42-3.411,4.592   C654.303,118.278,655.972,119.855,657.819,120.043"/>
	<path fill="#1D1D1B" d="M655.838,92.307c-0.315-0.695,0-1.537,0.726-1.858c0.698-0.288,1.537-0.087,1.819,0.515   c0.369,0.716,0,1.537-0.665,2.039C657.022,93.316,656.183,93.002,655.838,92.307"/>
	<path fill="#1D1D1B" d="M663.787,128.94c-0.329-0.722-0.04-1.537,0.478-1.858c0.634-0.328,1.558,0.007,2.092,0.729   c0.305,0.696-0.021,1.558-0.713,1.839C664.931,129.983,664.109,129.643,663.787,128.94"/>
	<path fill="#1D1D1B" d="M733.987,155.941c-0.318-0.723,0.027-1.537,0.755-1.858c0.743-0.327,1.575,0,1.87,0.682   c0.275,0.715,0.004,1.551-0.722,1.898C735.189,156.978,734.357,156.637,733.987,155.941"/>
	<polygon fill="#1D1D1B" points="658.719,69.417 656.697,73.342 657.177,73.508 658.023,72.793 666.97,77.386 666.792,78.127    667.594,78.448 669.219,74.993 668.635,74.725 667.816,75.313 659.249,70.741 659.158,69.812  "/>
	<polygon fill="#1D1D1B" points="664.285,86.685 663.726,86.511 663.2,86.912 656.496,85.481 666.084,81.852 666.957,79.652    666.252,79.478 665.607,79.766 656.594,76.189 656.529,75.34 655.875,75.133 654.747,78.228 655.569,78.529 656.342,78.127    662.744,80.615 652.51,84.532 652.052,86.063 662.751,88.416 663.21,88.918 663.603,89.105  "/>
	<path fill="#1D1D1B" d="M684.782,146.262L684.782,146.262c0.091-1.678-0.244-3.115-1.346-4.238l-0.161-0.194l-0.074-0.066   l-0.069-0.054l-0.055-0.053l-0.165-0.127c-1.194-1.037-2.645-1.378-4.336-1.19c-1.793,0.181-3.492,1.123-4.593,2.721   c-1.934,2.42-1.91,5.549,0.38,7.808l0.06,0.047h-0.011l-0.03-0.02l0.041,0.02c2.45,2.032,5.616,1.926,7.99-0.033   C683.819,149.718,684.685,148.02,684.782,146.262 M680.875,148.548c-0.393,0.395-1.9,1.812-3.451,1.845   c-0.664,0.007-1.252-0.194-1.8-0.728l-0.153-0.175c-0.51-0.367-0.749-0.829-0.786-1.497c-0.011-1.29,1.095-3.015,1.934-3.897   c0.692-0.695,3.224-3.342,5.214-1.551l0.295,0.268C684.048,144.697,681.445,147.946,680.875,148.548"/>
	<polygon fill="#1D1D1B" points="699.372,163.055 703.536,163.971 703.582,163.495 702.666,162.808 704.623,153.04 705.552,153    705.613,152.15 701.793,151.476 701.635,152.117 702.589,152.813 700.658,162.252 699.64,162.533  "/>
	<path fill="#1D1D1B" d="M731.11,158.568l0.43,0.021l0.853,2.587c-1.121,1.431-2.158,2.119-3.965,2.5   c-3.495,0.756-6.66-0.033-7.697-4.405c-1.515-4.76,1.551-6.645,5.14-7.688c1.098-0.314,1.843-0.321,3.015-0.475l0.664,2.573   l-0.513,0.335c-0.859-1.043-2.189-1.364-3.499-1.09c-1.926,0.501-3.131,2.781-2.461,4.646l5.775-1.311l0.466-1.043l0.571-0.146   l0.641,2.68l-0.594,0.127l-0.591-0.367l-5.69,1.35c0.097,2.159,2.303,3.777,4.529,3.336   C729.62,161.951,731.241,160.394,731.11,158.568"/>
	<polygon fill="#1D1D1B" points="675.548,134.89 675.091,135.271 675.161,135.953 670.236,140.934 672.422,130.98 671.038,129.081    670.552,129.556 670.427,130.265 662.385,135.826 661.615,135.425 661.122,135.847 663.2,138.534 663.905,137.958 663.982,137.109    669.521,133.159 667.259,143.735 668.333,144.938 676.172,137.17 676.84,137.049 677.195,136.822  "/>
	<polygon fill="#1D1D1B" points="715.318,153.114 715.278,153.702 715.866,154.104 716.551,160.969 710.078,152.706 707.84,152.485    707.909,153.16 708.336,153.742 707.556,163.516 706.738,163.89 706.731,164.538 709.974,164.592 710.038,163.676 709.467,163.068    709.904,156.329 716.705,164.939 718.3,164.926 717.42,154.15 717.786,153.535 717.827,153.101  "/>
	<polygon fill="#1D1D1B" points="681.271,155.5 681.577,154.838 682.52,154.912 688.986,147.559 688.67,146.783 689.184,146.182    691.187,147.03 690.865,154.337 695.006,149.538 694.803,149.155 695.156,148.901 698.063,150.071 698.019,150.814    697.513,151.062 696.207,160.996 696.918,161.817 696.727,162.406 693.305,160.901 693.511,160.18 694.129,160.032    695.072,152.198 689.006,159.404 687.79,159.003 688.624,149.965 683.709,155.828 684.141,156.649 683.957,157.092  "/>
	<path fill="#1D1D1B" d="M758.148,142.632l0.393-0.188l1.759,2.066c-0.204,1.824-0.806,2.921-2.183,4.157   c-2.698,2.541-5.911,3.282-9.101-0.087c-3.381-3.59-1.624-6.772,1.099-9.326c0.785-0.781,1.446-1.17,2.41-1.871l1.826,1.932   l-0.262,0.535c-1.313-0.481-2.619-0.12-3.602,0.775c-1.521,1.316-1.475,3.838,0.066,5.107l4.516-3.844l-0.125-1.123l0.387-0.408   l1.883,1.858l-0.43,0.401l-0.715-0.007l-4.542,4.198c1.138,1.919,3.94,2.327,5.649,0.695   C758.276,146.569,758.819,144.35,758.148,142.632"/>
	<path fill="#1D1D1B" d="M772.345,82.105v-0.448l2.665-0.568c1.501,1.103,2.152,2.125,2.559,3.911   c0.876,3.463-0.07,6.651-4.485,7.842c-4.629,1.43-6.741-1.625-7.695-5.201c-0.308-1.057-0.328-1.825-0.51-2.995l2.545-0.675   l0.336,0.521c-1.004,0.855-1.343,2.192-1.011,3.489c0.464,1.945,2.676,3.068,4.559,2.354l-1.282-5.749l-1.074-0.441l-0.145-0.569   l2.739-0.734l0.114,0.487l-0.386,0.743l1.446,5.782c2.243-0.067,3.929-2.387,3.458-4.593   C775.893,83.856,774.192,82.319,772.345,82.105"/>
	<path fill="#1D1D1B" d="M773.799,74.699l-2.997,1.49c-0.007-2.293,0.597-4.86,0.346-6.164c-0.434-1.865-1.018-2.366-2.515-3.603   l-0.438,0.341c0.438,0.755,0.614,0.755,0.907,1.878c0.393,1.584,0.353,2.607-0.048,4.205c-0.859-1.631-2.771-2.279-4.811-1.691   c-2.517,0.668-3.965,3.283-2.836,5.649l2.511,5.802l0.854-0.374l0.211-0.542l8.99-4.606l0.641,0.421l0.487-0.161L773.799,74.699z    M763.677,79.819c-1.141-2.366-1.789-5.856,1.323-6.645c2.585-0.688,4.119,1.765,4.485,3.737L763.677,79.819z"/>
	<path fill="#1D1D1B" d="M767.269,105.443l0.047-9.286l-0.771-2.527l3.198,2.026c-0.325,0.073-0.598,0.187-0.788,0.341   c-0.336,0.341-0.336,1.725-0.39,3.81l10.253-0.133l0.197-0.455l0.527,0.027l0.021,3.649l-0.299-0.006l-0.454-0.856l-10.168,0.167   c0.014,1.104-0.148,2.748,0.164,2.989c0.114,0.113,0.315,0.233,0.584,0.327l-2.686,1.771L767.269,105.443z"/>
	<polygon fill="#1D1D1B" points="778.015,114.253 778.804,110.076 778.334,110.042 777.612,110.891 767.719,109.146    767.625,108.418 766.782,108.344 766.259,112.188 766.884,112.255 767.501,111.493 777.139,113.145 777.474,114.033  "/>
	<path fill="#1D1D1B" d="M773.648,116.433l0.429-0.461l2.33,1.07c0.48,1.898,0.399,3.235-0.426,4.966   c-1.666,3.242-4.097,5.408-8.712,3.517c-4.481-2.013-3.982-5.695-2.48-9.138c0.463-1.063,0.92-1.645,1.494-2.642l2.563,0.977   l-0.194,0.688c-1.353,0.067-2.322,0.682-2.904,1.872c-0.959,1.918,0.531,3.63,2.311,5.007c1.766,1.337,5.619,0.762,6.623-1.224   C775.306,119.729,774.943,117.75,773.648,116.433"/>
	<polygon fill="#1D1D1B" points="770.254,134.075 772.385,130.331 771.915,130.312 771.012,130.833 761.885,125.852    762.056,125.137 761.277,124.802 759.85,128.232 760.431,128.526 761.29,128.005 769.79,132.758 769.868,133.674  "/>
	<path fill="#1D1D1B" d="M763.18,143.507l5.938-6.765l-1.275-3.263l-0.843,0.856c0,0,0.292,1.35,0.182,2.173   c-0.253,1.638-2.515,3.609-2.515,3.609l-7.705-6.357l0.333-0.816l-0.695-0.467l-2.659,3.342l0.719,0.495l0.859-0.388l7.489,6.244   l-0.15,0.875L763.18,143.507z"/>
	<path fill="#1D1D1B" d="M742.549,159.116l3.212-1.73l-0.326-0.388l-0.846-0.127l-2.29-4.633c0,0,1.911-1.364,3.126-1.632   c0.611-0.134,1.571-0.127,1.571-0.127l-1.165-2.347c0,0-0.554,0.716-0.963,1.104c-0.917,0.876-3.239,1.671-3.239,1.671   l-1.626-3.383c0,0,2.272-1.61,3.737-2.038c0.47-0.147,1.39-0.321,1.39-0.321s0.04-0.642,0.171-1.003   c0.212-0.635,0.803-1.524,0.803-1.524l-9.42,5.488l0.197,0.689l0.934-0.007l4.539,8.984l-0.215,0.775L742.549,159.116z"/>
	<path fill="#1D1D1B" d="M753.535,41.835l-0.526-1.498h-11.085V30.183c0-2.801-1.421-5.755-5.184-6.905   c-2.726-3.289-6.462-6.023-10.669-7.775V6.237h-6.358V0h-4.729h-0.011h-4.689v6.237h-6.224v9.266   c-4.2,1.751-7.99,4.486-10.622,7.775c-3.706,1.15-5.137,4.104-5.137,6.905v10.155h-11.045l-0.477,1.498   c-1.336,4.038-1.927,8.47-1.927,13.303c0,14.941,5.55,32.429,10.981,46.047c8.234,20.604,19.121,39.247,24.791,45.458   c1.35,1.344,2.438,2.526,4.23,2.601c0.026,0.014,0.08,0,0.11,0h0.011c0.057,0,0.084,0.014,0.128,0   c1.85-0.074,2.954-1.257,4.273-2.601c5.805-6.211,16.782-24.861,25.026-45.458c5.475-13.618,11.001-31.105,11.001-46.047   C755.419,50.305,754.902,45.879,753.535,41.835 M737.539,30.189v10.155h-9.983V29.735c0-1.324,0.359-1.591,0.591-1.752   c0.543-0.394,1.85-0.869,5.005-0.869C737.068,27.114,737.539,28.853,737.539,30.189 M730.278,22.937   c-1.527,0.154-2.988,0.481-4.217,1.203c-1.434-2.206-3.606-3.771-6.352-4.553V18.13C723.641,18.872,727.326,20.517,730.278,22.937    M723.187,29.735v10.602h-8.204h-0.011h-8.016l-0.012-10.602c0-3.042,2.025-6.565,8.027-6.565h0.011   C721.093,23.17,723.187,26.693,723.187,29.735 M707.46,9.626h6.247V3.409h1.266h0.011h1.35v6.217h6.352v2.761h-6.352v6.324h-1.35   h-0.011h-1.266v-6.324h-6.247V9.626z M710.283,18.13v1.464c-2.578,0.775-4.747,2.34-6.214,4.552   c-1.195-0.722-2.686-1.056-4.21-1.209C702.827,20.517,706.507,18.872,710.283,18.13 M692.712,30.189   c0-1.33,0.434-3.075,4.304-3.075c3.149,0,4.419,0.475,4.952,0.869c0.262,0.161,0.614,0.428,0.614,1.752c0,0,0,6.918,0.004,10.609   h-9.874V30.189L692.712,30.189z M714.972,44.703h0.011h34.81c0.178,0.648,0.339,1.351,0.452,2.059h-16.382   c-6.942,0-9.913,1.678-9.913,5.716c0,1.236,0.69,2.587,1.819,3.53c-0.796,0.321-4.119,1.504-4.609,1.718   c-0.393-0.448-1.141-1.15-1.242-2.253c0.326-0.535,1.047-1.638,1.047-3.222c0-2.479-1.715-4.993-6.079-5.121   c-2.018,0.081-3.287,0.669-4.311,1.478c-0.063,0.073-0.11,0.121-0.178,0.194c-1.81,0.495-2.951,1.745-2.951,3.355v1.725   c0,0,0.796,0.08,1.253,0.248c0.584,0.261,0.809,0.561,0.99,0.809c0.5,0.708,0.076,2.293-0.928,2.788   c-0.47-0.214-3.803-1.397-4.615-1.711c1.142-0.95,1.883-2.3,1.883-3.537c0-4.038-3.005-5.716-9.987-5.716h-16.02   c0.15-0.708,0.275-1.411,0.466-2.059H714.972L714.972,44.703z M683,79.071c-0.645-2.354-1.185-4.566-1.658-6.799   c4.854-0.762,16.762-2.64,25.067-3.917L683,79.071z M708.614,72.078l-4.656,6.993h-10.124L708.614,72.078z M684.265,83.423h21.113   v10.12h-17.783C686.306,90.074,685.25,86.685,684.265,83.423 M705.379,131.334c-3.193-5.349-6.66-11.893-9.991-18.966h9.991   V131.334z M724.782,131.334v-18.966h9.98C731.402,119.441,727.961,125.985,724.782,131.334 M740.349,99.546   c-1.165,2.875-2.38,5.649-3.649,8.457h-14.11h-2.186v30.177c-1.61,2.326-3.031,4.191-4.213,5.468   c-0.329,0.342-0.862,0.882-1.212,1.137c-0.309-0.255-0.795-0.795-1.151-1.137c-1.188-1.276-2.619-3.142-4.229-5.468v-30.177h-2.068   h-14.022c-1.266-2.801-2.487-5.582-3.605-8.457c-0.219-0.561-0.453-1.103-0.671-1.65h20.367V83.423h5.371h0.01h5.422v14.473h20.603   C740.805,98.443,740.577,98.985,740.349,99.546 M709.144,79.071l3.663-5.502v5.502H709.144z M717.209,79.071v-5.502l3.676,5.502   H717.209z M742.662,93.543h-17.88v-10.12h21.277C745.055,86.685,743.937,90.074,742.662,93.543 M721.492,72.078l14.906,6.993   h-10.24L721.492,72.078z M747.288,79.071L747.288,79.071l-23.55-10.717c8.278,1.277,20.301,3.156,25.202,3.917   C748.472,74.505,747.923,76.717,747.288,79.071 M749.793,68.02l-27.892-4.372c0.35,0.849,0.562,1.812,0.562,2.781   c0,3.971-3.213,7.179-7.235,7.179c-0.06,0-0.157-0.006-0.241-0.006h-0.01c-0.085,0-0.135,0.006-0.219,0.006   c-3.968,0-7.05-3.208-7.05-7.179c0-0.969,0.208-1.932,0.54-2.781l-27.756,4.372c-0.799-4.713-1.202-9.078-1.202-12.982   c0-1.411,0.074-2.714,0.169-4.051h16.59c4.565,0,4.945,0.475,5.156,0.688c0.306,0.281,0.383,1.036-0.043,1.337   c-0.987,0.622-2.511,1.35-2.511,3.577v0.12c0,1.792,1.583,2.46,5.367,3.951c1.085,0.414,4.901,1.918,4.901,1.918l0.789-0.455   c1.329-0.675,4.156-2.574,4.156-5.81c0-0.421-0.051-0.755-0.101-1.043c-0.104-0.434-0.285-0.815-0.467-1.143v-0.027   c-0.604-1.116-1.329-1.443-1.329-1.443s0.359-1.544,2.588-1.738l0.004,0.02c0.097-0.027,0.161-0.047,0.252-0.047h0.174   c1.117,0,1.866,0.922,1.866,2.012c0,1.351-0.869,1.631-0.869,3.409c-0.023,3.236,2.813,5.134,4.126,5.81l0.858,0.455   c0,0,3.893-1.504,4.952-1.918c3.828-1.491,5.371-2.16,5.371-3.951v-0.12c0-2.227-1.494-2.955-2.463-3.577   c-0.498-0.301-0.406-1.056-0.061-1.337c0.214-0.214,0.607-0.688,5.096-0.688h16.986c0.102,1.337,0.188,2.641,0.188,4.051   C751.038,58.942,750.604,63.307,749.793,68.02"/>
	<path fill="#B52718" d="M11.981,95.582c0,3.209,0.07,8.61,0.134,10.65c0.061,1.483,0.541,1.965,2.549,2.459   c1.339,0.321,1.594,0.502,1.594,1.438v1.23c0,0.742-0.191,0.996-0.812,0.996c-0.414,0-1.39-0.06-2.417-0.121   c-1.168-0.072-2.864-0.133-4.75-0.133c-2.247,0-3.771,0.061-4.993,0.133c-1.044,0.062-2.064,0.121-2.437,0.121   c-0.665,0-0.849-0.254-0.849-0.996v-1.23c0-0.936,0.235-1.116,1.638-1.438c2.018-0.494,2.501-0.976,2.558-2.459   c0.061-2.414,0.125-6.825,0.125-10.65v-9.993c0-3.831-0.064-8.29-0.125-10.75c-0.057-1.551-0.541-1.986-2.558-2.487   C0.235,72.051,0,71.864,0,70.935v-1.243c0-0.742,0.185-0.976,0.729-0.976c0.607,0,1.514,0.054,2.558,0.114   c1.095,0.067,2.498,0.12,4.442,0.12c3.045,0,3.045,0,8.695-0.18c1.229-0.054,2.313-0.054,3.296-0.054   c4.24,0,7.101,0.916,9.071,3.088c1.88,1.905,3.028,4.753,3.028,7.528c0,4.765-2.921,9.137-6.889,10.254   c-1.343,0.361-1.46,0.428-1.46,0.742c0,0.054,0.074,0.188,0.242,0.36c0.43,0.749,0.796,1.371,0.98,1.926   c1.282,2.915,5.304,10.034,7.436,12.936c1.702,2.36,2.491,3.035,4.311,3.463c1.168,0.308,1.225,0.367,1.225,1.424v1.043   c0,0.555-0.37,0.882-0.974,0.882h-0.49c-1.329-0.061-3.521-0.12-4.985-0.12c-0.917,0-2.186,0.06-3.575,0.12h-0.939   c-1.162,0-1.162,0-2.615-3.776c-0.541-1.37-4.683-10.107-6.859-14.674c-1.041-2.227-1.286-2.413-2.743-2.413h-0.426   c-0.242,0.066-0.423,0.066-0.423,0.066l-0.977-0.066c-0.366,0-0.675,0.441-0.675,1.116V95.582L11.981,95.582z M12.055,75.14   l-0.07,7.354v2.272l0.07,1.685c-0.07,1.237,0.185,1.458,1.275,1.458c3.952,0,6.251-0.476,7.661-1.585   c1.716-1.424,2.723-3.71,2.723-6.117c0-3.476-1.863-6.123-4.858-6.925c-1.202-0.314-2.914-0.435-5.22-0.435   c-1.343,0-1.581,0.12-1.581,0.982V75.14L12.055,75.14z"/>
	<path fill="#B52718" d="M43.933,84.96c0.182-1.664,0.604-2.16,2.501-2.647c2.125-0.508,5.509-0.936,7.826-0.936   c7.677,0,11.276,2.781,11.276,8.751l-0.188,11.271c0,6.184,0,6.258,0.721,6.932c0.557,0.436,1.158,0.616,2.619,0.743   c1.222,0.12,1.584,0.307,1.584,1.056v0.983c0,0.681-0.184,0.808-1.279,1.05l-7.231,1.216c-0.366,0.067-0.859,0.12-1.343,0.12   c-0.574,0-0.91-0.24-1.034-0.916c-0.171-0.42-0.343-1.979-0.279-2.46c0-1.116-0.121-1.617-0.413-1.617   c-0.057,0-0.235,0.127-0.417,0.254c-0.376,0.374-2.864,2.166-3.719,2.653c-1.639,0.983-3.881,1.599-6,1.599   c-3.841,0-6.882-3.377-6.882-7.775c0-2.105,0.679-4.773,1.531-5.956c0.48-0.675,0.551-0.735,3.766-1.357l8.017-1.604   c3.468-0.743,3.881-1.043,3.881-2.909V92.36c0-4.212-1.574-5.796-5.65-5.796c-2.604,0-6.063,0.989-8.382,2.333   c-0.484,0.314-0.726,0.381-0.907,0.381c-0.298,0-0.426-0.268-0.426-0.742v-0.388L43.933,84.96z M58.873,99.86   c0-0.822-0.054-1.002-0.474-1.002c-0.124,0-0.245,0-0.433,0.06l-0.667,0.12c-3.344,0.636-4.441,0.89-5.714,1.632   c-1.772,0.989-2.561,2.286-2.561,3.957c0,2.093,1.396,3.47,3.464,3.47c1.773,0,3.847-0.942,5.177-2.3   c0.913-0.982,1.208-1.972,1.208-4.197V99.86L58.873,99.86z"/>
	<path fill="#B52718" d="M98.812,65.848c0.306-0.06,0.587-0.06,0.711-0.06c0.548,0,0.853,0.374,0.853,1.116l-0.429,18.792v11.004   c0,7.928,0.077,9.96,0.49,10.77c0.554,1.177,0.983,1.431,3.592,1.678c0.547,0,0.859,0.233,0.859,0.676v1.183   c0,0.602-0.185,0.795-1.279,0.976l-7.842,1.524c-0.487,0.067-0.853,0.12-1.094,0.12c-0.487,0-0.671-0.307-0.729-1.096l-0.185-2.647   c-0.114-1.49-0.114-1.545-0.55-1.545c-0.058,0-0.306,0.12-0.541,0.361c-0.486,0.495-2.041,1.798-3.122,2.594   c-1.82,1.237-3.404,1.731-5.412,1.731c-6.697,0-11.478-6.17-11.478-14.78c0-10.021,5.707-16.866,13.972-16.866   c1.642,0,4.791,0.688,5.553,1.183c0.178,0.187,0.366,0.24,0.423,0.24c0.245,0,0.497-0.481,0.497-0.989c0-0.053,0-0.053-0.071-1.116   l-0.054-6.605c0-3.222-0.188-3.462-2.763-3.897c-1.155-0.127-1.396-0.308-1.396-1.163v-1.09c0-0.608,0.241-0.802,1.219-0.915   L98.812,65.848z M79.814,96.385c0,6.698,2.921,11.458,7.188,11.458c4.313,0,6.402-3.65,6.402-10.971c0-3.83-0.427-6.356-1.35-8.095   c-1.037-1.905-2.87-3.082-4.999-3.082C82.802,85.695,79.814,90.067,79.814,96.385"/>
	<path fill="#B52718" d="M111.579,84.899c0-5.314-0.07-11.498-0.191-12.607c-0.114-1.431-0.785-1.979-2.478-2.173   c-1.538-0.114-1.897-0.368-1.897-1.096v-0.956c0-0.569,0.239-0.743,1.031-0.87l8.883-1.29l1.162-0.201   c0.427,0,0.726,0.448,0.726,1.063c0,0.181,0,0.495-0.061,0.862c-0.057,1.444-0.114,3.229-0.181,8.243   c0,3.831-0.057,6.738-0.114,8.537l-0.074,1.043v0.44c0,0.228,0.131,0.368,0.312,0.368c0.302,0,1.028-0.675,2.424-2.167   c1.873-2.105,3.356-2.727,6.345-2.727c6.986,0,11.424,5.495,11.424,14.325c0,10.276-6.57,17.321-16.235,17.321   c-3.229,0-7.604-1.097-10.222-2.647c-0.799-0.494-1.102-0.989-1.102-2.039v-0.674c0.121-5.328,0.178-11.7,0.249-19.367V84.899z    M119.306,91.244c-0.667,1.671-0.977,4.158-0.977,8.035c0,4.659,0.185,6.33,0.668,7.447c0.668,1.29,2.683,2.347,4.461,2.347   c4.724,0,8.249-5.061,8.249-11.82c0-6.49-2.679-10.748-6.754-10.748C122.654,86.505,120.394,88.342,119.306,91.244"/>
	<path fill="#B52718" d="M172.023,87.795c1.407,2.479,2.199,5.508,2.199,8.65c0,4.157-1.396,8.369-3.847,11.331   c-2.787,3.463-6.929,5.24-12.156,5.24c-8.695,0-14.358-5.862-14.358-14.968c0-4.82,1.581-9.145,4.445-12.153   c2.833-3.095,6.268-4.519,11.001-4.519C165.094,81.377,169.656,83.67,172.023,87.795 M151.024,96.813   c0,6.571,3.444,11.465,8.282,11.465c4.334,0,7.664-4.586,7.664-10.415c0-6.986-3.414-11.913-8.215-11.913   C154.24,85.949,151.024,90.516,151.024,96.813"/>
	<path fill="#B52718" d="M207.846,96.385c0.063,5.702,0.117,9.091,0.235,10.161c0.255,1.651,0.859,2.093,3.163,2.4   c0.98,0.127,1.165,0.313,1.165,1.056v0.856c0,0.741-0.185,0.935-1.034,1.068l-8.275,1.09c-0.426,0.073-0.786,0.128-0.859,0.128   c-0.715,0-0.715,0-1.155-4.252c-0.057-0.937-0.228-1.363-0.611-1.363c-0.168,0-0.46,0.193-1.262,0.982   c-4.129,3.85-5.338,4.505-8.635,4.505c-2.306,0-4.653-0.607-6.214-1.657c-1.95-1.224-2.796-3.343-2.796-6.732   c0-0.494,0-1.544,0.061-2.66v-3.108v-5.442c0-7.22-0.195-7.761-2.622-8.009c-1.396-0.127-1.705-0.32-1.705-0.988v-1.063   c0-0.742,0.188-0.855,1.044-0.982l8.893-0.869c0.614-0.054,1.034-0.127,1.098-0.127c0.416,0,0.601,0.254,0.601,0.742   c0,0.314,0,0.81-0.06,1.35c-0.239,2.922-0.359,6.859-0.359,9.834v4.813c0,5.522,0.121,6.444,1.084,7.802   c0.731,1.063,2.078,1.611,3.78,1.611c2.854,0,5.418-1.357,6.509-3.464c0.775-1.417,0.967-2.969,0.967-7.681v-3.022   c0-2.365-0.121-5.635-0.259-6.223c-0.245-1.124-0.829-1.618-2.354-1.806c-1.4-0.12-1.705-0.308-1.705-0.915v-1.123   c0-0.683,0.188-0.863,1.037-0.923l8.749-0.923c0.359-0.073,0.725-0.073,0.974-0.073c0.61,0,0.782,0.187,0.782,0.742l-0.057,1.625   c-0.061,1.591-0.061,1.591-0.114,4.292c-0.063,1.116-0.063,2.48-0.063,4.024V96.385z"/>
	<path fill="#B52718" d="M242.018,65.848c0.312-0.06,0.621-0.06,0.745-0.06c0.543,0,0.856,0.374,0.856,1.116l-0.437,18.792v11.004   c0,7.928,0.063,9.96,0.483,10.77c0.547,1.177,0.96,1.431,3.599,1.678c0.538,0,0.836,0.233,0.836,0.676v1.183   c0,0.602-0.182,0.795-1.272,0.976l-7.846,1.524c-0.49,0.067-0.846,0.12-1.094,0.12c-0.48,0-0.665-0.307-0.729-1.096l-0.184-2.647   c-0.121-1.49-0.121-1.545-0.544-1.545c-0.063,0-0.306,0.12-0.551,0.361c-0.49,0.495-2.125,1.798-3.253,2.594   c-1.83,1.237-3.407,1.731-5.418,1.731c-6.677,0-11.394-6.17-11.394-14.78c0-10.021,5.626-16.866,13.888-16.866   c1.646,0,4.895,0.688,5.688,1.183c0.181,0.187,0.376,0.24,0.429,0.24c0.242,0,0.477-0.481,0.477-0.989c0-0.053,0-0.053-0.047-1.116   l-0.06-6.605c0-3.222-0.181-3.462-2.904-3.897c-1.145-0.127-1.39-0.308-1.39-1.163v-1.09c0-0.608,0.245-0.802,1.212-0.915   L242.018,65.848z M222.903,96.385c0,6.698,2.911,11.458,7.161,11.458c4.425,0,6.553-3.65,6.553-10.971   c0-3.83-0.426-6.356-1.343-8.095c-1.101-1.905-3.015-3.082-5.146-3.082C225.884,85.695,222.903,90.067,222.903,96.385"/>
	<path fill="#B52718" d="M271.114,85.589c0-3.838-0.067-8.29-0.124-10.757c-0.063-1.551-0.543-1.985-2.551-2.48   c-1.41-0.308-1.648-0.495-1.648-1.417v-1.25c0-0.735,0.178-0.969,0.799-0.969c0.345,0,1.457,0.054,2.491,0.114   c1.152,0.067,2.85,0.12,4.737,0.12c2.239,0,3.756-0.053,4.972-0.12c0.93-0.06,1.967-0.114,2.333-0.114   c0.604,0,0.796,0.234,0.796,0.969v1.25c0,0.923-0.258,1.11-1.582,1.417c-1.967,0.495-2.407,0.929-2.454,2.48   c-0.053,2.019-0.117,7.541-0.117,10.757v6.518c0,7.099,0.302,9.793,1.37,11.772c1.561,2.968,4.968,4.692,9.226,4.692   c5.109,0,8.694-2.092,10.031-5.876c0.792-2.34,0.866-3.162,0.866-10.883v-6.23c0-3.65-0.074-8.41-0.134-10.75   c-0.047-1.551-0.474-1.985-2.541-2.48c-1.407-0.308-1.652-0.495-1.652-1.417v-1.25c0-0.735,0.195-0.976,0.796-0.976   c0.423,0,1.46,0.053,2.501,0.113c1.148,0.067,2.347,0.127,3.444,0.127c1.339,0,2.434-0.06,3.649-0.127   c1.031-0.06,2.068-0.113,2.495-0.113c0.614,0,0.786,0.24,0.786,0.976v1.25c0,0.923-0.229,1.11-1.635,1.417   c-2.064,0.495-2.5,0.929-2.558,2.48c-0.06,2.099-0.127,7.354-0.127,10.75v5.976c0,7.294-0.121,9.045-0.601,11.138   c-1.578,6.792-7.359,10.321-17.024,10.321c-7.426,0-12.649-2.406-14.902-6.852c-1.283-2.595-1.639-5.495-1.639-14.347V85.589   L271.114,85.589z"/>
	<path fill="#B52718" d="M311.6,83.783c0-0.923,0.107-1.11,0.822-1.23l8.638-1.049c0.558-0.061,0.977-0.127,1.038-0.127   c0.49,0,0.795,0.428,0.856,1.176c0.061,0.496,0.185,3.396,0.185,3.71c0.053,0.742,0.299,1.297,0.604,1.297   c0.178,0,0.423-0.188,0.674-0.421l0.598-0.689l1.162-1.17c2.904-3.162,4.425-3.903,7.953-3.903c4.377,0,7.61,1.672,8.775,4.572   c0.526,1.49,0.526,1.49,0.526,10.496v2.032c0,3.616,0.051,7.132,0.101,8.369c0.104,1.304,0.463,1.658,2.29,2.227   c1.827,0.561,1.887,0.621,1.887,1.483v0.982c0,0.623-0.178,0.816-0.661,0.816h-0.43c-1.578-0.114-4.337-0.193-6.573-0.193   c-2.32,0-5.187,0.072-6.761,0.193h-0.437c-0.49,0-0.668-0.254-0.668-0.816v-0.982c0-0.862,0.061-0.923,1.883-1.483   c1.833-0.568,2.189-0.923,2.316-2.227c0.054-1.431,0.114-4.827,0.114-8.369v-2.032c0-3.884-0.175-5.569-0.665-6.866   c-0.665-1.671-2.306-2.573-4.549-2.573c-2.5,0-4.8,1.149-6.197,3.129c-1.041,1.43-1.293,2.78-1.293,6.737v1.605   c0,3.729,0.067,6.938,0.131,8.369c0.121,1.304,0.497,1.658,2.256,2.227c1.81,0.621,1.87,0.621,1.87,1.483v0.982   c0,0.563-0.181,0.816-0.682,0.816h-0.419c-1.562-0.114-4.297-0.193-6.614-0.193c-2.303,0-5.294,0.072-6.755,0.193h-0.426   c-0.48,0-0.664-0.254-0.664-0.816v-0.982c0-0.862,0.063-0.923,1.886-1.483c1.816-0.568,2.189-0.923,2.316-2.227   c0.051-1.297,0.118-4.64,0.118-8.369v-2.159c0-3.022-0.366-7.85-0.722-8.945c-0.322-1.05-0.927-1.424-2.81-1.53   c-1.41-0.147-1.675-0.254-1.675-0.816V83.783L311.6,83.783z"/>
	<path fill="#B52718" d="M356.944,93.416c0-7.293-0.124-7.721-2.619-8.009c-1.4-0.127-1.708-0.32-1.708-0.936v-1.116   c0-0.682,0.195-0.855,1.044-0.929l8.698-0.922l0.5-0.061c0.171-0.066,0.346-0.066,0.48-0.066c0.537,0,0.795,0.428,0.795,1.176   c0,0.12,0,0.12-0.07,2.407c-0.058,1.05-0.131,7.039-0.131,10.442v3.068c0,3.623,0.074,6.892,0.131,8.376   c0.124,1.304,0.483,1.658,2.255,2.227c1.823,0.561,1.884,0.621,1.884,1.483v0.976c0,0.563-0.188,0.823-0.665,0.823h-0.43   c-1.584-0.121-4.317-0.2-6.646-0.2c-2.303,0-5.214,0.072-6.738,0.2h-0.43c-0.551,0-0.678-0.2-0.678-0.823v-0.976   c0-0.862,0-0.862,1.897-1.483c1.89-0.622,2.198-0.93,2.306-2.227c0.063-1.611,0.124-4.453,0.124-8.376V93.416L356.944,93.416z    M364.548,72.352c0,2.541-2.122,4.579-4.798,4.579c-2.612,0-4.756-1.979-4.756-4.533c0-2.647,2.01-4.331,4.992-4.331   C362.664,68.067,364.548,69.751,364.548,72.352"/>
	<path fill="#B52718" d="M401.318,83.296c0,0.862,0,0.862-1.162,1.176c-0.785,0.361-1.157,0.93-2.182,3.563   c-0.669,1.737-0.669,1.737-5.904,14.486c-1.948,4.813-2.375,5.936-2.801,7.112c-0.533,1.479-0.533,1.538-0.785,1.898   c-0.185,0.308-0.42,0.448-1.272,0.569c-0.557,0.066-0.739,0.066-2.871,0.428c-0.245,0.06-0.49,0.06-0.675,0.06   c-0.598,0-0.658-0.06-1.333-2.032c-0.799-2.165-1.336-3.523-4.14-11.149c-2.894-7.977-4.015-11.125-5.042-13.512   c-0.426-1.063-0.554-1.13-1.957-1.61c-0.356-0.127-0.541-0.502-0.541-0.989v-1.11c0-0.628,0.248-0.815,1.041-0.815   c0.182,0,0.182,0,2.954,0.134c0.581,0.053,1.688,0.053,3.122,0.053c2.864,0,4.62-0.053,6.449-0.187h0.735   c0.601,0,0.835,0.187,0.835,0.815v1.11c0,0.801-0.05,0.801-1.695,1.229c-1.762,0.428-2.438,0.876-2.438,1.738   c0,0.301,0.067,0.735,0.256,1.229c0.298,0.909,0.597,1.846,0.846,2.781l1.517,4.874c1.891,6.07,3.166,9.967,3.294,9.967   c0.063,0,0.121-0.301,0.238-0.676l0.255-0.869l0.534-1.671c0.309-0.989,0.738-2.166,1.095-3.422l1.768-4.813   c1.884-5.375,2.378-7.032,2.378-7.715c0-0.735-0.974-1.417-2.505-1.725c-0.729-0.2-0.916-0.368-0.916-0.929v-1.104   c0-0.555,0.248-0.815,0.734-0.815c0.182,0,0.363,0,0.665,0.073c0.732,0.054,3.23,0.114,4.452,0.114c1.141,0,2.537-0.06,3.819-0.187   h0.554c0.481,0,0.665,0.187,0.665,0.815v1.104H401.318z"/>
	<path fill="#B52718" d="M412.393,94.954c-2.253,0-2.495,0.194-2.495,2.293c0,5.89,3.83,10.275,9.067,10.275   c3.035,0,7.423-1.484,9.417-3.156c0.124-0.113,0.182-0.181,0.232-0.181c0.188,0,0.372,0.248,0.372,0.562   c0,0.923-0.567,5.001-0.688,5.442c-0.168,0.367-0.819,0.741-2.521,1.41c-2.203,0.876-5.12,1.417-7.665,1.417   c-8.883,0-14.932-6.104-14.932-14.9c0-9.573,6.401-16.746,15.237-16.746c7.184,0,11.112,4.085,11.112,11.418   c0,1.678-0.668,2.166-2.962,2.166H412.393z M413.42,91.933l2.797-0.254c1.102-0.061,4.086-0.301,5.159-0.488   c0.934-0.054,1.29-0.435,1.29-1.243c0-1.109-0.431-2.447-1.155-3.442c-0.731-0.983-1.943-1.545-3.595-1.545   c-1.947,0-3.885,0.936-4.989,2.353c-0.967,1.156-1.701,2.962-1.701,3.998c0,0.508,0.255,0.695,0.859,0.695L413.42,91.933z"/>
	<path fill="#B52718" d="M434.573,84.097c0-0.921,0.185-1.103,1.094-1.236l8.829-1.356l0.501-0.054   c0.231-0.073,0.423-0.073,0.477-0.073c0.437,0,0.726,0.428,0.726,1.056l-0.051,2.713c0,2.648,0.051,3.068,0.54,3.068   c0.198,0,0.726-0.42,1.158-0.955c0.917-1.063,0.917-1.063,2.374-2.728c1.709-1.919,2.316-2.347,4.059-2.774   c0.923-0.254,1.826-0.381,2.935-0.381c1.584,0,2.245,0.428,2.188,1.363v0.12l-0.248,4.339c-0.057,1.083-0.315,1.524-0.849,1.524   c-0.121,0-0.306-0.073-0.561-0.134c-0.723-0.248-2.122-0.375-3.519-0.375c-2.232,0-3.999,0.623-5.156,1.739   c-1.383,1.431-1.648,2.653-1.648,8.777v2.667l0.134,3.964c0.061,2.033,0.192,2.541,1.027,2.968c0.49,0.241,0.558,0.241,3.172,0.856   c1.857,0.447,1.928,0.447,1.928,1.304v0.869c0,0.621-0.302,0.996-0.802,0.996h-0.269c-1.773-0.06-6.635-0.193-9.078-0.193   c-1.937,0-4.787,0.072-6.221,0.193h-0.423c-0.486,0-0.669-0.254-0.669-0.816v-0.982c0-0.855,0-0.855,1.804-1.483   c1.862-0.622,2.173-0.923,2.282-2.22c0.062-1.558,0.132-4.398,0.132-8.376v-2.032c0-3.083-0.427-6.612-1.041-8.29   c-0.547-1.523-1.427-2.086-3.293-2.14c-1.344-0.066-1.524-0.173-1.524-0.869v-1.05H434.573z"/>
	<path fill="#B52718" d="M484.037,87.728c-0.064,0.989-0.186,1.11-0.864,1.11h-0.96c-0.613,0-0.613,0-1.215-1.578   c-0.674-1.611-2.562-2.547-5.227-2.547c-2.911,0-4.867,1.61-4.867,4.004c0,1.658,0.853,2.781,3.226,4.138   c1.399,0.803,1.399,0.803,5.458,2.668c3.962,1.785,6.258,4.706,6.258,8.116c0,5.621-5.035,9.378-12.687,9.378   c-2.917,0-5.86-0.614-7.855-1.657c-0.862-0.361-1.044-0.749-0.983-1.726l0.362-4.218c0.058-0.734,0.366-1.05,1.048-1.05h1.021   c0.675,0,0.731,0,1.102,1.605c0.557,2.118,3.118,3.723,5.985,3.723c3.095,0,5.261-1.678,5.261-4.078   c0-1.852-0.96-2.848-4.297-4.392c-7.806-3.529-9.753-5.643-9.753-10.228c0-6.037,4.424-9.62,11.941-9.62   c2.293,0,4.79,0.434,6.251,1.056c0.97,0.367,1.215,0.682,1.215,1.423v0.168L484.037,87.728z"/>
	<path fill="#B52718" d="M495.607,93.416c0-7.293-0.106-7.721-2.604-8.009c-1.402-0.127-1.712-0.32-1.712-0.936v-1.116   c0-0.682,0.182-0.855,1.04-0.929l8.646-0.922l0.442-0.061c0.175-0.066,0.359-0.066,0.487-0.066c0.54,0,0.785,0.428,0.785,1.176   c0,0.12,0,0.12-0.058,2.407c-0.06,1.05-0.109,7.039-0.109,10.442v3.068c0,3.623,0.054,6.892,0.109,8.376   c0.118,1.304,0.478,1.658,2.22,2.227c1.84,0.561,1.891,0.621,1.891,1.483v0.976c0,0.563-0.182,0.823-0.662,0.823h-0.43   c-1.577-0.121-4.3-0.2-6.516-0.2c-2.303,0-5.228,0.072-6.744,0.2h-0.426c-0.552,0-0.676-0.2-0.676-0.823v-0.976   c0-0.862,0-0.862,1.899-1.483c1.888-0.622,2.18-0.93,2.311-2.227c0.054-1.611,0.106-4.453,0.106-8.376V93.416L495.607,93.416z    M503.108,72.352c0,2.541-2.111,4.579-4.697,4.579c-2.618,0-4.746-1.979-4.746-4.533c0-2.647,2.003-4.331,4.985-4.331   C501.224,68.067,503.108,69.751,503.108,72.352"/>
	<path fill="#B52718" d="M515.875,90.274c-0.058-3.59-0.058-3.643-1.521-3.643c-0.245,0-0.245,0-1.101,0.06h-1.568   c-0.504,0.061-0.846,0.061-0.92,0.061c-0.369,0-0.611-0.182-0.611-0.354c0-0.128,0.064-0.448,0.238-0.802l0.729-2.046   c0.511-1.357,0.617-1.484,1.225-1.484c0.176,0,0.726,0.053,1.462,0.127c0.237,0.06,0.493,0.06,0.73,0.06   c1.099,0,1.508-0.381,1.508-1.303c0-0.314-0.06-2.293-0.174-4.091c-0.058-0.976-0.058-1.905-0.058-2.587   c0-1.351,0.346-1.865,1.692-2.353l3.837-1.357c1.222-0.435,1.222-0.435,1.402-0.435c0.359,0,0.611,0.435,0.611,0.922   c0,0.381-0.063,1.063-0.181,1.805c-0.201,1.538-0.611,6.739-0.611,7.909c0,1.11,0.289,1.304,2.062,1.304h4.976   c1.456,0,2.253-0.067,3.051-0.194h0.366c0.31,0,0.497,0.194,0.497,0.501c0,0.374-0.188,0.989-0.739,2.841   c-0.285,1.291-0.563,1.538-1.541,1.538c-0.231,0-0.231,0-1.806-0.113c-0.43,0-1.142-0.068-2.3-0.134   c-1.356-0.048-1.775-0.048-2.309-0.048c-1.965,0-1.965,0-1.965,2.648v9.513c0,4.839,0.121,6.431,0.735,7.62   c0.555,1.164,1.766,1.785,3.669,1.785c1.326,0,2.77-0.24,4.895-0.809c0.369-0.114,0.682-0.182,0.8-0.182   c0.313,0,0.439,0.182,0.439,0.496c0,0.868-0.49,3.837-0.661,4.077c-0.457,0.635-4.64,1.417-7.49,1.417   c-6.945,0-9.563-2.025-9.563-7.407l0.073-3.649c0.061-1.491,0.114-2.555,0.114-3.349v-8.344H515.875z"/>
	<path fill="#B52718" d="M546.239,94.954c-2.252,0-2.501,0.194-2.501,2.293c0,5.89,3.831,10.275,9.095,10.275   c3.021,0,7.398-1.484,9.41-3.156c0.127-0.113,0.188-0.181,0.248-0.181c0.168,0,0.359,0.248,0.359,0.562   c0,0.923-0.544,5.001-0.675,5.442c-0.174,0.367-0.843,0.741-2.545,1.41c-2.199,0.876-5.119,1.417-7.651,1.417   c-8.912,0-15.063-6.104-15.063-14.9c0-9.573,6.507-16.746,15.368-16.746c7.158,0,11.112,4.085,11.112,11.418   c0,1.678-0.678,2.166-2.974,2.166H546.239z M547.266,91.933l2.833-0.254c1.082-0.061,4.066-0.301,5.144-0.488   c0.934-0.054,1.282-0.435,1.282-1.243c0-1.109-0.419-2.447-1.165-3.442c-0.718-0.983-1.923-1.545-3.568-1.545   c-1.947,0-3.91,0.936-5.013,2.353c-0.959,1.156-1.691,2.962-1.691,3.998c0,0.508,0.235,0.695,0.843,0.695L547.266,91.933z"/>
	<path fill="#B52718" d="M572.969,93.416c0-7.293-0.124-7.721-2.615-8.009c-1.399-0.127-1.702-0.32-1.702-0.936v-1.116   c0-0.682,0.175-0.855,1.027-0.929l8.712-0.922l0.49-0.061c0.178-0.066,0.336-0.066,0.457-0.066c0.554,0,0.795,0.428,0.795,1.176   c0,0.12,0,0.12-0.061,2.407c-0.071,1.05-0.127,7.039-0.127,10.442v3.068c0,3.623,0.06,6.892,0.127,8.376   c0.131,1.304,0.484,1.658,2.25,2.227c1.829,0.561,1.873,0.621,1.873,1.483v0.976c0,0.563-0.172,0.823-0.655,0.823h-0.427   c-1.578-0.121-4.294-0.2-6.623-0.2c-2.313,0-5.227,0.072-6.751,0.2h-0.42c-0.544,0-0.668-0.2-0.668-0.823v-0.976   c0-0.862,0-0.862,1.896-1.483c1.88-0.622,2.179-0.93,2.297-2.227c0.067-1.611,0.124-4.453,0.124-8.376V93.416L572.969,93.416z    M580.556,72.352c0,2.541-2.115,4.579-4.802,4.579c-2.604,0-4.733-1.979-4.733-4.533c0-2.647,1.997-4.331,4.995-4.331   C578.686,68.067,580.556,69.751,580.556,72.352"/>
	<path fill="#B52718" d="M593.336,90.274c-0.061-3.59-0.061-3.643-1.523-3.643c-0.242,0-0.242,0-1.092,0.06h-1.578   c-0.489,0.061-0.849,0.061-0.916,0.061c-0.363,0-0.618-0.182-0.618-0.354c0-0.128,0.077-0.448,0.253-0.802l0.734-2.046   c0.486-1.357,0.601-1.484,1.212-1.484c0.194,0,0.742,0.053,1.467,0.127c0.235,0.06,0.484,0.06,0.729,0.06   c1.091,0,1.521-0.381,1.521-1.303c0-0.314-0.051-2.293-0.188-4.091c-0.061-0.976-0.061-1.905-0.061-2.587   c0-1.351,0.356-1.865,1.692-2.353l3.743-1.357c1.215-0.435,1.215-0.435,1.399-0.435c0.356,0,0.614,0.435,0.614,0.922   c0,0.381-0.076,1.063-0.194,1.805c-0.191,1.538-0.607,6.739-0.607,7.909c0,1.11,0.309,1.304,2.054,1.304h4.989   c1.46,0,2.245-0.067,3.155-0.194h0.369c0.303,0,0.487,0.194,0.487,0.501c0,0.374-0.185,0.989-0.735,2.841   c-0.356,1.291-0.661,1.538-1.645,1.538c-0.239,0-0.239,0-1.823-0.113c-0.423,0-1.145-0.068-2.313-0.134   c-1.322-0.048-1.745-0.048-2.285-0.048c-1.944,0-1.944,0-1.944,2.648v9.513c0,4.839,0.107,6.431,0.722,7.62   c0.551,1.164,1.767,1.785,3.64,1.785c1.329,0,2.786-0.24,4.928-0.809c0.49-0.114,0.789-0.182,0.909-0.182   c0.303,0,0.424,0.182,0.424,0.496c0,0.868-0.479,3.837-0.665,4.077c-0.54,0.635-4.736,1.417-7.587,1.417   c-6.919,0-9.44-2.025-9.44-7.407l0.058-3.649c0.063-1.491,0.121-2.555,0.121-3.349v-8.344H593.336z"/>
</g>
</svg>